<?xml version="1.0" encoding="UTF-8"?>
<svg xmlns="http://www.w3.org/2000/svg" width="150" height="150" viewBox="0 0 150 150" fill="none">
  <path d="M92.6824 120.541C93.7895 120.279 94.475 119.169 94.2136 118.062C93.9522 116.954 92.8428 116.268 91.7358 116.53C90.6288 116.791 89.9432 117.901 90.2046 119.009C90.466 120.116 91.5754 120.802 92.6824 120.541Z" fill="#043E84"></path>
  <path d="M23 128.571C23 120.521 28.7527 114.286 36.7755 114.286C44.6043 114.286 50.551 120.122 50.551 128.571C50.551 136.822 44.614 142.857 36.7755 142.857C28.9371 142.857 23 137.021 23 128.571ZM26.473 128.571C26.473 134.876 30.984 139.685 36.7755 139.685C42.9454 139.685 47.078 134.846 47.078 128.571C47.078 122.107 42.567 117.458 36.7755 117.458C30.9064 117.468 26.473 122.107 26.473 128.571Z" fill="#043E84"></path>
  <path d="M57.7795 148.521C57.7795 149.344 57.1066 150 56.2061 150C55.3056 150 54.6327 149.334 54.6327 148.521V125.969C54.6327 125.146 55.3056 124.49 56.2061 124.49C57.1066 124.49 57.7795 125.156 57.7795 125.969V126.361C59.2143 125.029 61.144 124.49 63.5783 124.49C68.6151 124.49 71.9796 128.105 71.9796 133.277C71.9796 138.616 68.3183 142.604 62.7669 142.604C60.8768 142.604 59.0263 142.212 57.7696 141.399V148.521H57.7795ZM57.7795 138.019C59.3529 139.067 60.9065 139.596 62.5986 139.547C66.349 139.449 68.7438 137.362 68.912 133.669C69.0802 129.907 66.7943 127.468 63.0241 127.566C60.9758 127.615 58.8878 128.546 57.7894 129.907V138.019H57.7795Z" fill="#043E84"></path>
  <path d="M84.924 139.508C85.6394 139.508 86.2654 139.972 86.2654 140.776C86.2654 141.241 86.0269 141.657 85.4308 142.005C84.4074 142.625 83.1356 142.857 81.6353 142.857C77.6411 142.857 76.0613 140.389 76.0613 135.965V121.87C76.0613 121.057 76.7369 120.408 77.6411 120.408C78.5452 120.408 79.2209 121.066 79.2209 121.87V125.219H84.2385C85.0731 125.219 85.7388 125.878 85.7388 126.642C85.7388 127.456 85.0631 128.104 84.2385 128.104H79.2209V135.655C79.2209 138.385 80.125 139.963 82.3805 139.963C83.4237 139.972 84.3279 139.508 84.924 139.508Z" fill="#043E84"></path>
  <path d="M94.4286 141.347C94.4286 142.187 93.5558 142.857 92.3877 142.857C91.2197 142.857 90.3469 142.177 90.3469 141.347V126C90.3469 125.16 91.2197 124.49 92.3877 124.49C93.5558 124.49 94.4286 125.17 94.4286 126V141.347Z" fill="#043E84"></path>
  <path d="M102.794 141.344C102.794 142.186 102.096 142.857 101.162 142.857C100.229 142.857 99.5306 142.176 99.5306 141.344V121.739C99.5306 116.76 101.901 114.286 105.976 114.286C107.607 114.286 108.952 114.686 110.06 115.318C110.553 115.598 110.758 115.959 110.758 116.47C110.758 117.271 110.142 117.782 109.332 117.782C109.044 117.782 108.757 117.742 108.469 117.622C107.813 117.381 107.248 117.261 106.509 117.261C104.18 117.261 102.794 118.734 102.794 122.08V124.634H112.605C113.467 124.634 113.816 125.305 113.816 126.107C113.816 126.948 113.118 127.62 112.267 127.62H102.784V141.344H102.794Z" fill="#043E84"></path>
  <path d="M119.538 138.464C119.766 137.612 120.033 136.711 120.338 135.781L123.938 125.694C124.129 125.068 124.624 124.49 125.415 124.49C126.51 124.49 127.082 125.195 127.082 126.008C127.082 126.243 127.005 126.517 126.929 126.752L120.909 142.215C118.442 148.521 116.813 150 114.394 150C113.032 150 111.365 149.647 111.365 148.169C111.365 147.385 111.822 146.925 112.574 146.925C112.994 146.925 113.403 147.121 114.051 147.121C115.489 147.121 116.547 145.956 117.69 143.145L118.071 142.215L110.908 126.869C110.793 126.634 110.755 126.36 110.755 126.125C110.755 125.273 111.393 124.49 112.413 124.49C113.022 124.49 113.594 124.872 113.86 125.459L118.518 135.82C118.928 136.711 119.195 137.573 119.538 138.464Z" fill="#043E84"></path>
  <path d="M75.0867 33.0196C80.1567 33.0196 84.9667 35.0129 88.5634 38.6096C92.16 42.2062 94.1534 46.9729 94.1534 52.0862C94.1534 57.1996 92.16 61.9662 88.5634 65.5629C84.9667 69.1596 80.2 71.1529 75.0867 71.1529C69.9734 71.1529 65.2067 69.1596 61.61 65.5629C58.0134 61.9662 56.02 57.1996 56.02 52.0862C56.02 46.9729 58.0134 42.1629 61.61 38.5662C65.2067 34.9696 69.9734 33.0196 75.0867 33.0196ZM75.0867 23.9629C59.5734 23.9629 47.0067 36.5296 47.0067 52.0429C47.0067 67.5562 59.5734 80.1229 75.0867 80.1229C90.6 80.1229 103.167 67.5562 103.167 52.0429C103.167 36.5296 90.5567 23.9629 75.0867 23.9629Z" fill="#0084DD"></path>
  <path d="M56.1067 51.9998C56.1067 41.5131 64.6434 32.9765 75.13 32.9765C80.5467 32.9765 85.4 35.2298 88.8667 38.8698L88.91 38.8265C88.78 38.7398 88.6934 38.6098 88.5634 38.5231C86.7867 36.7465 86.7867 33.8865 88.5634 32.1098C90.2534 30.4198 92.8967 30.3331 94.6734 31.8498C89.6034 26.9098 82.7134 23.8765 75.13 23.8765C59.66 23.8765 47.05 36.4865 47.05 51.9565C47.05 59.5831 50.0834 66.5165 55.0667 71.5431C53.5067 69.7665 53.5934 67.0798 55.2834 65.3898C57.06 63.6131 59.92 63.6131 61.6967 65.3898C61.8267 65.5198 61.9134 65.6065 62 65.7365L62.0434 65.6931C58.36 62.2698 56.1067 57.4165 56.1067 51.9998Z" fill="#10B9E4"></path>
  <path d="M103.21 52C103.21 44.4167 100.177 37.5267 95.2801 32.5C96.7535 34.2767 96.6235 36.92 94.9768 38.5667C93.3301 40.2133 90.6868 40.3433 88.9101 38.87L88.8668 38.9133C92.1168 42.3367 94.1101 46.93 94.1101 52.0433C94.1101 62.53 85.5735 71.0667 75.0868 71.0667C70.0168 71.0667 65.3801 69.0733 61.9568 65.8233L61.9135 65.8667C63.3435 67.6433 63.2568 70.2867 61.6101 71.9333C59.9635 73.58 57.3201 73.6667 55.5435 72.2367C60.6135 77.1333 67.5035 80.1667 75.0435 80.1667C90.6001 80.08 103.21 67.47 103.21 52Z" fill="#069CEF"></path>
  <path d="M41.72 23.6603C44.4483 23.6603 46.66 21.4486 46.66 18.7203C46.66 15.992 44.4483 13.7803 41.72 13.7803C38.9917 13.7803 36.78 15.992 36.78 18.7203C36.78 21.4486 38.9917 23.6603 41.72 23.6603Z" fill="#0084DD"></path>
  <path d="M112.007 88.5733C113.74 86.6233 113.653 83.6766 111.79 81.8133C109.883 79.9066 106.763 79.9066 104.813 81.8133C102.907 83.72 102.907 86.84 104.813 88.79C106.677 90.6533 109.623 90.6966 111.573 89.0066C111.66 88.92 111.703 88.8766 111.79 88.79C111.833 88.7033 111.92 88.6166 112.007 88.5733Z" fill="#0084DD"></path>
  <path d="M38.2533 15.2533C40.16 13.3467 43.28 13.3467 45.23 15.2533C47.1366 17.16 47.1366 20.28 45.23 22.23C45.1866 22.2733 45.1433 22.3167 45.1 22.3167C52.7266 14.6033 63.3433 9.83667 75 9.83667C86.2666 9.83667 96.84 14.2133 104.813 22.1867C112.787 30.16 117.163 40.7333 117.163 52C117.163 63.2667 112.787 73.84 104.813 81.8133C104.77 81.8567 104.727 81.9 104.683 81.9C104.727 81.8567 104.77 81.8133 104.77 81.77C106.677 79.8633 109.797 79.8633 111.747 81.77C113.61 83.6333 113.653 86.58 111.963 88.53C121.67 78.7367 127 65.78 127 51.9567C127 38.0467 121.583 25.0033 111.747 15.1667C101.953 5.41667 88.91 0 75 0C61.1333 0 48.0466 5.41667 38.2533 15.2533C38.21 15.2967 38.1666 15.34 38.1233 15.3833C38.1666 15.2967 38.21 15.2533 38.2533 15.2533Z" fill="#069CEF"></path>
  <path d="M38.2533 88.79C48.0467 98.5833 61.1333 104 75 104C88.78 104 101.78 98.67 111.573 88.9633C109.623 90.6966 106.677 90.61 104.813 88.7466C102.907 86.84 102.907 83.8066 104.727 81.9C96.7967 89.7866 86.2233 94.12 75.0433 94.12C63.7767 94.12 53.2033 89.7433 45.23 81.77C37.2567 73.7966 32.8367 63.2666 32.8367 52C32.8367 40.43 37.5167 29.9433 45.1 22.3166C43.15 24.1366 40.1167 24.0933 38.2533 22.23C36.3467 20.3233 36.3467 17.29 38.1667 15.3833C28.3733 25.1333 23 38.1766 23 52C23 65.91 28.4167 78.9533 38.2533 88.79Z" fill="#10B9E4"></path>
</svg>
