<svg version="1.1" xmlns="http://www.w3.org/2000/svg" width="30px" height="34px" viewBox="0 0 30 34">
  <path fill="#ffffff" opacity="0.2" d="M29.962,0.002c-3.897,0.011-5.869,1.584-7.772,3.107C20.33,4.596,18.576,6,15.001,6c-3.576,0-5.332-1.404-7.189-2.891
    C5.907,1.586,3.936,0.013,0.039,0.002C0.024,0.002,0.014,0,0,0v1c0.014,0,0.025,0.002,0.039,0.002c3.548,0.011,5.3,1.408,7.15,2.889
    C9.101,5.419,11.076,7,15.001,7c3.924,0,5.899-1.581,7.812-3.109c1.851-1.481,3.602-2.878,7.149-2.889
    C29.977,1.002,29.986,1,29.999,1V0C29.986,0,29.977,0.002,29.962,0.002"/>
  <path fill="#ffffff" opacity="0.2" d="M21.365,0h-1.92c-1.161,0.596-2.543,1-4.444,1c-1.903,0-3.283-0.404-4.445-1H8.635c1.552,1.099,3.404,2,6.366,2
    S19.812,1.099,21.365,0"/>
  <path fill="#ffffff" opacity="0.2" d="M22.189,7.912c-1.858,1.486-3.613,2.891-7.188,2.891c-3.576,0-5.331-1.405-7.19-2.891C5.907,6.389,3.936,4.815,0.038,4.805
    C0.025,4.805,0.014,4.803,0,4.803v1c0.014,0,0.025,0.002,0.038,0.002c3.548,0.01,5.3,1.408,7.151,2.888
    c1.911,1.529,3.887,3.11,7.812,3.11c3.924,0,5.899-1.581,7.81-3.11c1.853-1.48,3.604-2.878,7.151-2.888
    c0.013,0,0.024-0.002,0.038-0.002v-1c-0.014,0-0.025,0.002-0.038,0.002C26.064,4.815,24.093,6.389,22.189,7.912"/>
  <path fill="#ffffff" opacity="0.2" d="M22.189,12.714c-1.858,1.486-3.613,2.891-7.188,2.891c-3.576,0-5.331-1.405-7.19-2.891
    c-1.904-1.523-3.875-3.096-7.773-3.107C0.025,9.607,0.014,9.605,0,9.605v1c0.014,0,0.025,0.002,0.038,0.002
    c3.548,0.01,5.3,1.408,7.151,2.888c1.911,1.529,3.887,3.11,7.812,3.11c3.924,0,5.899-1.581,7.81-3.11
    c1.853-1.48,3.604-2.878,7.151-2.888c0.013,0,0.024-0.002,0.038-0.002v-1c-0.014,0-0.025,0.002-0.038,0.002
    C26.064,9.618,24.093,11.191,22.189,12.714"/>
  <path fill="#ffffff" opacity="0.2" d="M22.189,17.516c-1.858,1.486-3.613,2.892-7.188,2.892c-3.576,0-5.331-1.405-7.19-2.892
    c-1.904-1.522-3.875-3.096-7.773-3.106c-0.013,0-0.024-0.002-0.038-0.002v1c0.014,0,0.025,0.002,0.038,0.002
    c3.548,0.01,5.3,1.408,7.151,2.888c1.911,1.529,3.887,3.11,7.812,3.11c3.924,0,5.899-1.581,7.81-3.11
    c1.853-1.48,3.604-2.878,7.151-2.888c0.013,0,0.024-0.002,0.038-0.002v-1c-0.014,0-0.025,0.002-0.038,0.002
    C26.064,14.42,24.093,15.993,22.189,17.516"/>
  <path fill="#ffffff" opacity="0.2" d="M22.189,22.318c-1.858,1.486-3.613,2.891-7.188,2.891c-3.576,0-5.331-1.404-7.19-2.891
    c-1.904-1.523-3.875-3.096-7.773-3.107c-0.013,0-0.024-0.002-0.038-0.002v1c0.014,0,0.025,0.002,0.038,0.002
    c3.548,0.012,5.3,1.408,7.151,2.889c1.911,1.528,3.887,3.109,7.812,3.109c3.924,0,5.899-1.581,7.81-3.109
    c1.853-1.479,3.604-2.877,7.151-2.889c0.013,0,0.024-0.002,0.038-0.002v-1c-0.014,0-0.025,0.002-0.038,0.002
    C26.064,19.223,24.093,20.795,22.189,22.318"/>
  <path fill="#ffffff" opacity="0.2" d="M22.189,27.12c-1.858,1.485-3.613,2.892-7.188,2.892c-3.576,0-5.331-1.404-7.19-2.892c-1.904-1.522-3.875-3.097-7.773-3.106
    c-0.013,0-0.024-0.002-0.038-0.002v1c0.014,0,0.025,0.002,0.038,0.002c3.548,0.01,5.3,1.408,7.151,2.889
    c1.911,1.529,3.887,3.109,7.812,3.109c3.924,0,5.899-1.58,7.81-3.109c1.853-1.479,3.604-2.879,7.151-2.889
    c0.013,0,0.024-0.002,0.038-0.002v-1c-0.014,0-0.025,0.002-0.038,0.002C26.064,24.023,24.093,25.598,22.189,27.12"/>
  <path fill="#ffffff" opacity="0.2" d="M22.189,32.109c-0.869,0.695-1.725,1.367-2.744,1.891h1.921c0.504-0.355,0.977-0.734,1.444-1.109
    c1.852-1.479,3.604-2.877,7.15-2.889C29.975,30.002,29.986,30,30,30v-1c-0.014,0-0.025,0.002-0.038,0.002
    C26.064,29.014,24.093,30.586,22.189,32.109"/>
  <path fill="#ffffff" opacity="0.2" d="M0.039,29.002C0.024,29.002,0.014,29,0,29v1c0.013,0,0.024,0.002,0.038,0.002c3.548,0.012,5.3,1.408,7.151,2.889
    C7.658,33.266,8.13,33.643,8.636,34h1.92c-1.021-0.523-1.875-1.195-2.744-1.891C5.908,30.586,3.936,29.014,0.039,29.002"/>
</svg>
